# xmcd
#
# Track frame offsets:
# 150
# 17325
# 38774
# 53550
# 69522
# 87900
# 105449
# 128322
# 152323
# 173637
# 191126
# 211301
# 230196
# 244372
# 263124
# 286523
# 304674
# 322524
#
# Disc length: 4582 seconds
#
# Revision: 0
# Processed by: cddbd v1.4PL0 Copyright (c) Steve Scherf et al.
# Submitted via: Audion 3.0.2 (http://www.panic.com/audion/)
#
DISCID=d811e412
DTITLE=?(TM)OE?OEµ - æ´--°
DYEAR=1900
DGENRE=
TTITLE0=I will Be Fine
TTITLE1=d
TTITLE2=a
TTITLE3=d
TTITLE4=d
TTITLE5=s
TTITLE6=d
TTITLE7=ALIVE
TTITLE8=s
TTITLE9=s
TTITLE10=Close To You
TTITLE11=fq
TTITLE12=j
TTITLE13=j
TTITLE14=j
TTITLE15=j
TTITLE16=j
TTITLE17=j
EXTD=
EXTT0=
EXTT1=
EXTT2=
EXTT3=
EXTT4=
EXTT5=
EXTT6=
EXTT7=
EXTT8=
EXTT9=
EXTT10=
EXTT11=
EXTT12=
EXTT13=
EXTT14=
EXTT15=
EXTT16=
EXTT17=
PLAYORDER=
